<svg id="Layer_1" data-name="Layer 1" xmlns="http://www.w3.org/2000/svg" viewBox="0 0 1919.5 715.9"><title>aboutMe</title><path d="M1920,134.42V803a1997.69,1997.69,0,0,1-225,3c-33.46-1.44-80-3.55-137-11-100.12-13.09-150.22-32-221-49-56.59-13.63-187.77-44.28-343-35-74.26,4.44-190.16,20.18-276,27-5.62.45-25.3,2-51.75,5-41.52,4.76-71.57,10.09-74.75,10.49-132.91,16.91-328.34,22.61-591-33v-607c51,1.55,128.59,5.67,224,18,28.53,3.69,42,6,63,9,112,16.23,213.16,21.76,276.93,23.81,12.79.41,30,1,53.07,1.19,60.6.59,136.71,1.33,218.5-9.5,78.18-10.35,131.38-27.27,209.08-41.5,0,0,43.7-8,87.42-12,3-.27,10-.91,25-2,18.59-1.35,154.17-10.92,300-8C1665.42,96.66,1862.37,125.58,1920,134.42Z" transform="translate(-0.5 -91.95)" style="fill:#fff"/><path d="M837,857" transform="translate(-0.5 -91.95)" style="fill:#bf1f5c"/></svg>