<svg id="ba230943-1bdb-4bd0-9561-c7824586c7f7" xmlns="http://www.w3.org/2000/svg" viewBox="0 0 1019.48 436.68"><title>kompiuterioLogo</title><path d="M223.77,243.61a9.75,9.75,0,1,0-19.5-.13h0a11.28,11.28,0,0,0,.09,1.42l-28,36.68a13.57,13.57,0,0,0,1.83,14.92l2.2,2.56,10.08-2L201.89,287l-1.34-11.43,14.11-22.18h0A9.74,9.74,0,0,0,223.77,243.61Z" style="fill:#ffb9b9"/><polygon points="30.04 422.97 25.47 405.98 88.8 380.26 95.55 405.33 30.04 422.97" style="fill:#ffb8b8"/><path d="M14.74,431.73,0,377l.69-.19a22.1,22.1,0,0,1,27.06,15.58h0l9,33.45Z" style="fill:#2f2e41"/><polygon points="117.28 420.25 103.05 409.91 136.19 350.12 157.18 365.39 117.28 420.25" style="fill:#ffb8b8"/><path d="M110.88,436.68,65,403.33l.42-.58a22.08,22.08,0,0,1,30.84-4.87h0l28,20.37Z" style="fill:#2f2e41"/><path d="M238.19,336.7,202.4,301.93a18.08,18.08,0,0,0-23.67-1.32l-67.59,75.08,6,9.41,64.54-43.69,43.69,57.14,41.68-20.84Z" style="fill:#2f2e41"/><path d="M222.73,344.1l-26.22-2-19-4.6a9.75,9.75,0,1,0-2.93,13.5,8.06,8.06,0,0,0,1.1-.82h0l11.42,4.7,49.08,16.81,6-4.71Z" style="fill:#ffb9b9"/><polygon points="285.92 416.7 271.13 426.11 253.65 426.11 172.31 395.86 53.33 417.37 49.97 391.83 158.87 344.1 254.33 375.69 285.92 416.7" style="fill:#2f2e41"/><circle cx="254.33" cy="227.13" r="26.22" transform="translate(-10.61 441.79) rotate(-80.78)" style="fill:#ffb9b9"/><path d="M322.16,331.8a150.49,150.49,0,0,1-7.39,46.6l-2,6-9.41,43-10.09,2.69-7.39-9.41L271.13,410l-10.75-17.5-9.23-15.37-2.87-4.8-10.09-50.41L199.88,300.4l-12.78-2,2.69-7.4,11.43-15.46,11.43-1.34,3.35-2.7,2.69,1.34,14.82,5.71,48.06-20.3,7,1.15,24.2,20.17A150.45,150.45,0,0,1,322.16,331.8Z" style="fill:#ccc"/><polygon points="314.82 325.95 289.28 342.75 251.15 377.13 248.28 372.33 240.21 332 242.23 332 263.06 293.68 314.82 325.95" style="opacity:0.10000000149011612;isolation:isolate"/><polygon points="263.06 289.65 242.23 327.96 230.13 341.41 219.37 344.1 248.28 375.69 289.28 338.72 314.82 321.92 263.06 289.65" style="fill:#ccc"/><path d="M233.93,207.64l-2.84,1.09a4,4,0,0,1-1.06-5.5h0l.05-.07-5.25-.25a39.65,39.65,0,0,1,55.5-7.9,40.43,40.43,0,0,1,3.67,3.13c.24-.82,2.85.78,3.91,2.41.36-1.34,2.8,5.13,3.67,9.71.4-1.53,1.93.93.59,3.29.85-.12,1.24,2.06.58,3.28.93-.44.77,2.17-.24,3.91,1.33-.12-.11,27.33-20.11,25.33-1.4-6.4-1-6-2.64-14.22-.77-.81-1.6-1.55-2.44-2.29l-4.51-4c-5.25-4.63-10-10.35-17-12.08-4.8-1.19-7.84-1.46-5.22-6.87-2.37,1-4.58,2.45-7,3.37A14.19,14.19,0,0,0,233.93,207.64Z" style="fill:#ddab1f"/><circle cx="267.43" cy="230.16" r="4.71" style="fill:#ffb9b9"/><rect x="47.26" y="119.71" width="21.61" height="21.61" transform="translate(-76.02 179.78) rotate(-86.19)" style="fill:#e6e6e6"/><path d="M34.09,130.47l26.18,1.75L58.52,158.4l-26.18-1.75Zm25,2.81-23.9-1.59-1.59,23.9,23.9,1.59Z" style="fill:#ccc"/><rect x="150.75" y="57.1" width="21.61" height="21.61" transform="translate(-10.66 35.46) rotate(-12.13)" style="fill:#e6e6e6"/><path d="M155,44.85l5.51,25.66L134.88,76l-5.51-25.66Zm4.16,24.78-5-23.42-23.42,5,5,23.42Z" style="fill:#ccc"/><rect x="136.34" y="160.99" width="21.61" height="21.61" transform="translate(-77.69 147.02) rotate(-43.13)" style="fill:#e6e6e6"/><path d="M163.56,154.34l-19.15,17.94-17.94-19.16,19.15-17.93Zm-19.1,16.32,17.48-16.38L145.57,136.8l-17.49,16.38Z" style="fill:#ccc"/><path d="M963.28,0H323.89A17.6,17.6,0,0,0,306.3,17.59h0V373.85a17.6,17.6,0,0,0,17.58,17.6h639.4a17.6,17.6,0,0,0,17.6-17.6V17.6A17.6,17.6,0,0,0,963.28,0Z" style="fill:#3f3d56"/><rect x="329.89" y="31.1" width="627.39" height="353.91" style="fill:#2a7591"/><circle cx="643.05" cy="15.01" r="6.43" style="fill:#fff"/><path d="M998.49,378.58H937.26v-4.41a.89.89,0,0,0-.87-.88h-21a.87.87,0,0,0-.87.87h0v4.41H901.4v-4.41a.87.87,0,0,0-.88-.88h-21a.89.89,0,0,0-.87.88h0v4.41H865.54v-4.41a.9.9,0,0,0-.88-.88h-21a.9.9,0,0,0-.88.88h0v4.41H829.67v-4.41a.89.89,0,0,0-.87-.88h-21a.87.87,0,0,0-.88.86v0h0v4.41H793.81v-4.41a.89.89,0,0,0-.87-.88h-21a.89.89,0,0,0-.87.88h0v4.41H758v-4.41a.87.87,0,0,0-.88-.88h-21a.89.89,0,0,0-.87.88h0v4.41H722.08v-4.41a.89.89,0,0,0-.87-.88H556.77a.87.87,0,0,0-.88.88h0v4.41H542.77v-4.41a.89.89,0,0,0-.87-.88h-21a.89.89,0,0,0-.87.88h0v4.41H506.91v-4.41a.87.87,0,0,0-.88-.88H485a.89.89,0,0,0-.87.88h0v4.41H471v-4.41a.89.89,0,0,0-.87-.88h-21a.87.87,0,0,0-.88.88h0v4.41H435.18v-4.41a.89.89,0,0,0-.87-.88h-21a.89.89,0,0,0-.87.88h0v4.41H399.32v-4.41a.87.87,0,0,0-.88-.88h-21a.89.89,0,0,0-.87.88v4.41H363.46v-4.41a.9.9,0,0,0-.88-.88h-21a.9.9,0,0,0-.88.88h0v4.41H300.48a21,21,0,0,0-21,21v9.5a21,21,0,0,0,21,21h698a21,21,0,0,0,21-21h0v-9.5a21,21,0,0,0-21-21Z" style="fill:#3f3d56"/><g style="isolation:isolate"><text transform="translate(382.34 85.08)" style="isolation:isolate;font-size:10px;fill:#ade3ea;font-family:ArialMT, Arial">&lt;</text><text transform="translate(388.18 85.08)" style="isolation:isolate;font-size:10px;fill:#db463b;font-family:ArialMT, Arial">!DOCTYPE </text><text transform="translate(442.08 85.08)" style="isolation:isolate;font-size:10px;fill:#9d87b2;font-family:ArialMT, Arial">html</text><text transform="translate(460.97 85.08)" style="isolation:isolate;font-size:10px;fill:#ade3ea;font-family:ArialMT, Arial">&gt;</text><text transform="translate(382.34 100.08)" style="isolation:isolate;font-size:10px;fill:#ade3ea;font-family:ArialMT, Arial">&lt;</text><text transform="translate(388.18 100.08)" style="isolation:isolate;font-size:10px;fill:#db463b;font-family:ArialMT, Arial">html </text><text transform="translate(409.85 100.08)" style="isolation:isolate;font-size:10px;fill:#9d87b2;font-family:ArialMT, Arial">lang</text><text transform="translate(428.76 100.08)" style="isolation:isolate;font-size:10px;fill:#ade3ea;font-family:ArialMT, Arial">=”</text><text transform="translate(437.93 100.08)" style="isolation:isolate;font-size:10px;fill:#90bfac;font-family:ArialMT, Arial">en</text><text transform="translate(449.05 100.08)" style="isolation:isolate;font-size:10px;fill:#ade3ea;font-family:ArialMT, Arial">”&gt;</text><text transform="translate(382.34 115.08)" style="isolation:isolate;font-size:10px;fill:#ade3ea;font-family:ArialMT, Arial">&lt;</text><text transform="translate(388.18 115.08)" style="isolation:isolate;font-size:10px;fill:#db463b;font-family:ArialMT, Arial">head</text><text transform="translate(410.43 115.08)" style="isolation:isolate;font-size:10px;fill:#ade3ea;font-family:ArialMT, Arial">&gt;</text><text transform="translate(382.34 130.08)" style="isolation:isolate;font-size:10px;fill:#ade3ea;font-family:ArialMT, Arial;letter-spacing:3.32001953125em"> </text><text transform="translate(418.34 130.08)" style="isolation:isolate;font-size:10px;fill:#ade3ea;font-family:ArialMT, Arial">&lt;</text><text transform="translate(424.18 130.08)" style="isolation:isolate;font-size:10px;fill:#db463b;font-family:ArialMT, Arial">meta</text><text transform="translate(446.41 130.08)" style="isolation:isolate;font-size:10px;fill:#ad5c51;font-family:ArialMT, Arial"> </text><text transform="translate(449.19 130.08)" style="isolation:isolate;font-size:10px;fill:#9d87b2;font-family:ArialMT, Arial">charset</text><text transform="translate(481.98 130.08)" style="isolation:isolate;font-size:10px;fill:#ade3ea;font-family:ArialMT, Arial">=”</text><text transform="translate(491.15 130.08)" style="isolation:isolate;font-size:10px;fill:#90bfac;font-family:ArialMT, Arial">UTF-8</text><text transform="translate(519.48 130.08)" style="isolation:isolate;font-size:10px;fill:#ade3ea;font-family:ArialMT, Arial">”&gt;</text><text transform="translate(382.34 145.08)" style="isolation:isolate;font-size:10px;fill:#ade3ea;font-family:ArialMT, Arial;letter-spacing:3.32001953125em"> </text><text transform="translate(418.34 145.08)" style="isolation:isolate;font-size:10px;fill:#ade3ea;font-family:ArialMT, Arial">&lt;</text><text transform="translate(424.18 145.08)" style="isolation:isolate;font-size:10px;fill:#db463b;font-family:ArialMT, Arial">meta</text><text transform="translate(446.41 145.08)" style="isolation:isolate;font-size:10px;fill:#ad5c51;font-family:ArialMT, Arial"> </text><text transform="translate(449.19 145.08)" style="isolation:isolate;font-size:10px;fill:#9d87b2;font-family:ArialMT, Arial">name</text><text transform="translate(474.2 145.08)" style="isolation:isolate;font-size:10px;fill:#ade3ea;font-family:ArialMT, Arial">=”</text><text transform="translate(483.37 145.08)" style="isolation:isolate;font-size:10px;fill:#90bfac;font-family:ArialMT, Arial">viewport</text><text transform="translate(520.61 145.08)" style="isolation:isolate;font-size:10px;fill:#ade3ea;font-family:ArialMT, Arial">” </text><text transform="translate(526.72 145.08)" style="isolation:isolate;font-size:10px;fill:#9d87b2;font-family:ArialMT, Arial">content</text><text transform="translate(559.52 145.08)" style="isolation:isolate;font-size:10px;fill:#ade3ea;font-family:ArialMT, Arial">=”</text><text transform="translate(568.69 145.08)" style="isolation:isolate;font-size:10px;fill:#90bfac;font-family:ArialMT, Arial">width=device-width, initial-scale=1.0</text><text transform="translate(728.22 145.08)" style="isolation:isolate;font-size:10px;fill:#ade3ea;font-family:ArialMT, Arial">”&gt;</text><text transform="translate(382.34 160.08)" style="isolation:isolate;font-size:10px;fill:#ade3ea;font-family:ArialMT, Arial;letter-spacing:3.32001953125em"> </text><text transform="translate(418.34 160.08)" style="isolation:isolate;font-size:10px;fill:#ade3ea;font-family:ArialMT, Arial">&lt;</text><text transform="translate(424.18 160.08)" style="isolation:isolate;font-size:10px;fill:#db463b;font-family:ArialMT, Arial">title</text><text transform="translate(439.74 160.08)" style="isolation:isolate;font-size:10px;fill:#ade3ea;font-family:ArialMT, Arial">&gt; Justas</text><text transform="translate(477.26 160.08)" style="isolation:isolate;font-size:10px;fill:#ade3ea;font-family:ArialMT, Arial;letter-spacing:-0.076123046875em">’</text><text transform="translate(479.11 160.08)" style="isolation:isolate;font-size:10px;fill:#ade3ea;font-family:ArialMT, Arial"><tspan xml:space="preserve"> portfolio &lt;</tspan></text><text transform="translate(526.08 160.08)" style="isolation:isolate;font-size:10px;fill:#db463b;font-family:ArialMT, Arial">/title</text><text transform="translate(544.42 160.08)" style="isolation:isolate;font-size:10px;fill:#ade3ea;font-family:ArialMT, Arial">&gt;</text><text transform="translate(382.34 175.08)" style="isolation:isolate;font-size:10px;fill:#ade3ea;font-family:ArialMT, Arial">&lt;</text><text transform="translate(388.18 175.08)" style="isolation:isolate;font-size:10px;fill:#db463b;font-family:ArialMT, Arial">/head</text><text transform="translate(413.2 175.08)" style="isolation:isolate;font-size:10px;fill:#ade3ea;font-family:ArialMT, Arial">&gt;</text><text transform="translate(382.34 205.08)" style="isolation:isolate;font-size:10px;fill:#ade3ea;font-family:ArialMT, Arial">&lt;</text><text transform="translate(388.18 205.08)" style="isolation:isolate;font-size:10px;fill:#db463b;font-family:ArialMT, Arial">body</text><text transform="translate(409.86 205.08)" style="isolation:isolate;font-size:10px;fill:#ade3ea;font-family:ArialMT, Arial">&gt;</text><text transform="translate(382.34 220.08)" style="isolation:isolate;font-size:10px;fill:#ade3ea;font-family:ArialMT, Arial;letter-spacing:3.32001953125em"> </text><text transform="translate(418.34 220.08)" style="isolation:isolate;font-size:10px;fill:#ade3ea;font-family:ArialMT, Arial">&lt;</text><text transform="translate(424.18 220.08)" style="isolation:isolate;font-size:10px;fill:#db463b;font-family:ArialMT, Arial">h2</text><text transform="translate(435.3 220.08)" style="isolation:isolate;font-size:10px;fill:#ad5c51;font-family:ArialMT, Arial"> </text><text transform="translate(438.08 220.08)" style="isolation:isolate;font-size:10px;fill:#9d87b2;font-family:ArialMT, Arial">class</text><text transform="translate(460.86 220.08)" style="isolation:isolate;font-size:10px;fill:#ade3ea;font-family:ArialMT, Arial">=”</text><text transform="translate(470.03 220.08)" style="isolation:isolate;font-size:10px;fill:#90bfac;font-family:ArialMT, Arial">text1</text><text transform="translate(491.71 220.08)" style="isolation:isolate;font-size:10px;fill:#ade3ea;font-family:ArialMT, Arial">”&gt; Justas Bacinskas &lt;</text><text transform="translate(589.54 220.08)" style="isolation:isolate;font-size:10px;fill:#db463b;font-family:ArialMT, Arial">/h2</text><text transform="translate(603.44 220.08)" style="isolation:isolate;font-size:10px;fill:#ade3ea;font-family:ArialMT, Arial">&gt;</text><text transform="translate(382.34 235.08)" style="isolation:isolate;font-size:10px;fill:#ade3ea;font-family:ArialMT, Arial;letter-spacing:3.32001953125em"> </text><text transform="translate(418.34 235.08)" style="isolation:isolate;font-size:10px;fill:#ade3ea;font-family:ArialMT, Arial">&lt;</text><text transform="translate(424.18 235.08)" style="isolation:isolate;font-size:10px;fill:#db463b;font-family:ArialMT, Arial">h3</text><text transform="translate(435.3 235.08)" style="isolation:isolate;font-size:10px;fill:#ad5c51;font-family:ArialMT, Arial"> </text><text transform="translate(438.08 235.08)" style="isolation:isolate;font-size:10px;fill:#9d87b2;font-family:ArialMT, Arial">class</text><text transform="translate(460.86 235.08)" style="isolation:isolate;font-size:10px;fill:#ade3ea;font-family:ArialMT, Arial">=”</text><text transform="translate(470.03 235.08)" style="isolation:isolate;font-size:10px;fill:#90bfac;font-family:ArialMT, Arial">text2</text><text transform="translate(491.71 235.08)" style="isolation:isolate;font-size:10px;fill:#ade3ea;font-family:ArialMT, Arial">”&gt;</text><text transform="translate(500.88 235.08)" style="isolation:isolate;font-size:10px;fill:#ade3ea;font-family:ArialMT, Arial;letter-spacing:-0.11416015625em"><tspan xml:space="preserve"> A</tspan></text><text transform="translate(509.23 235.08)" style="isolation:isolate;font-size:10px;fill:#ade3ea;font-family:ArialMT, Arial"><tspan xml:space="preserve"> passionate Front/Back-End Developer based in Germany &lt;</tspan></text><text transform="translate(774.09 235.08)" style="isolation:isolate;font-size:10px;fill:#db463b;font-family:ArialMT, Arial">/h3</text><text transform="translate(787.99 235.08)" style="isolation:isolate;font-size:10px;fill:#ade3ea;font-family:ArialMT, Arial">&gt;</text><text transform="translate(382.34 265.08)" style="isolation:isolate;font-size:10px;fill:#ade3ea;font-family:ArialMT, Arial;letter-spacing:3.32001953125em"> </text><text transform="translate(418.34 265.08)" style="isolation:isolate;font-size:10px;fill:#ade3ea;font-family:ArialMT, Arial">&lt;</text><text transform="translate(424.18 265.08)" style="isolation:isolate;font-size:10px;fill:#db463b;font-family:ArialMT, Arial">script</text><text transform="translate(448.07 265.08)" style="isolation:isolate;font-size:10px;fill:#ad5c51;font-family:ArialMT, Arial"> </text><text transform="translate(450.85 265.08)" style="isolation:isolate;font-size:10px;fill:#9d87b2;font-family:ArialMT, Arial">type</text><text transform="translate(469.75 265.08)" style="isolation:isolate;font-size:10px;fill:#ade3ea;font-family:ArialMT, Arial">=</text><text transform="translate(475.59 265.08)" style="isolation:isolate;font-size:10px;fill:#90bfac;font-family:ArialMT, Arial">text/javascript</text><text transform="translate(536.72 265.08)" style="isolation:isolate;font-size:10px;fill:#ade3ea;font-family:ArialMT, Arial">” </text><text transform="translate(542.83 265.08)" style="isolation:isolate;font-size:10px;fill:#9d87b2;font-family:ArialMT, Arial">src</text><text transform="translate(556.16 265.08)" style="isolation:isolate;font-size:10px;fill:#ade3ea;font-family:ArialMT, Arial">=”</text><text transform="translate(565.33 265.08)" style="isolation:isolate;font-size:10px;fill:#90bfac;font-family:ArialMT, Arial">/javascript/app.js</text><text transform="translate(639.81 265.08)" style="isolation:isolate;font-size:10px;fill:#ade3ea;font-family:ArialMT, Arial">”&gt;&lt;</text><text transform="translate(654.82 265.08)" style="isolation:isolate;font-size:10px;fill:#db463b;font-family:ArialMT, Arial">/script</text><text transform="translate(681.49 265.08)" style="isolation:isolate;font-size:10px;fill:#ade3ea;font-family:ArialMT, Arial">&gt;</text><text transform="translate(382.34 280.08)" style="isolation:isolate;font-size:10px;fill:#ade3ea;font-family:ArialMT, Arial">&lt;</text><text transform="translate(388.18 280.08)" style="isolation:isolate;font-size:10px;fill:#db463b;font-family:ArialMT, Arial">/body</text><text transform="translate(412.64 280.08)" style="isolation:isolate;font-size:10px;fill:#ade3ea;font-family:ArialMT, Arial">&gt;</text><text transform="translate(382.34 295.08)" style="isolation:isolate;font-size:10px;fill:#ade3ea;font-family:ArialMT, Arial">&lt;</text><text transform="translate(388.18 295.08)" style="isolation:isolate;font-size:10px;fill:#db463b;font-family:ArialMT, Arial">/html</text><text transform="translate(409.85 295.08)" style="isolation:isolate;font-size:10px;fill:#ade3ea;font-family:ArialMT, Arial">&gt;</text></g><rect x="329.89" y="31.1" width="627.39" height="23.98" style="fill:#ade3ea"/><rect x="343" y="37" width="512" height="9.21" style="fill:#a9c7c9"/><circle cx="928.79" cy="41.6" r="5.09" style="fill:#d5e22b"/><circle cx="943.74" cy="41.6" r="5.09" style="fill:#b54545"/><circle cx="913.85" cy="41.6" r="5.09" style="fill:#329e5e"/><g style="isolation:isolate"><text transform="translate(340.76 85.02)" style="isolation:isolate;font-size:10px;fill:#87aeaf;font-family:ArialMT, Arial">1</text><text transform="translate(340.76 100.02)" style="isolation:isolate;font-size:10px;fill:#87aeaf;font-family:ArialMT, Arial">2</text><text transform="translate(340.76 115.02)" style="isolation:isolate;font-size:10px;fill:#87aeaf;font-family:ArialMT, Arial">3</text><text transform="translate(340.76 130.02)" style="isolation:isolate;font-size:10px;fill:#87aeaf;font-family:ArialMT, Arial">4</text><text transform="translate(340.76 145.02)" style="isolation:isolate;font-size:10px;fill:#87aeaf;font-family:ArialMT, Arial">5</text><text transform="translate(340.76 160.02)" style="isolation:isolate;font-size:10px;fill:#87aeaf;font-family:ArialMT, Arial">6</text><text transform="translate(340.76 175.02)" style="isolation:isolate;font-size:10px;fill:#87aeaf;font-family:ArialMT, Arial">7</text><text transform="translate(340.76 190.02)" style="isolation:isolate;font-size:10px;fill:#87aeaf;font-family:ArialMT, Arial">8</text><text transform="translate(340.76 205.02)" style="isolation:isolate;font-size:10px;fill:#87aeaf;font-family:ArialMT, Arial">9</text><text transform="translate(335.63 220.02)" style="isolation:isolate;font-size:10px;fill:#87aeaf;font-family:ArialMT, Arial">10</text><text transform="translate(335.63 235.02)" style="isolation:isolate;font-size:10px;fill:#87aeaf;font-family:ArialMT, Arial"><tspan style="letter-spacing:-0.07421875em">1</tspan><tspan x="4.82" y="0">1</tspan></text><text transform="translate(335.63 250.02)" style="isolation:isolate;font-size:10px;fill:#87aeaf;font-family:ArialMT, Arial">12</text><text transform="translate(335.63 265.02)" style="isolation:isolate;font-size:10px;fill:#87aeaf;font-family:ArialMT, Arial">13</text><text transform="translate(335.63 280.02)" style="isolation:isolate;font-size:10px;fill:#87aeaf;font-family:ArialMT, Arial">14</text><text transform="translate(335.63 295.02)" style="isolation:isolate;font-size:10px;fill:#87aeaf;font-family:ArialMT, Arial">15</text><text transform="translate(335.63 310.02)" style="isolation:isolate;font-size:10px;fill:#87aeaf;font-family:ArialMT, Arial">16</text><text transform="translate(335.63 325.02)" style="isolation:isolate;font-size:10px;fill:#87aeaf;font-family:ArialMT, Arial">17</text><text transform="translate(335.63 340.02)" style="isolation:isolate;font-size:10px;fill:#87aeaf;font-family:ArialMT, Arial">18</text><text transform="translate(335.63 355.02)" style="isolation:isolate;font-size:10px;fill:#87aeaf;font-family:ArialMT, Arial">19</text></g></svg>