<svg id="Layer_1" data-name="Layer 1" xmlns="http://www.w3.org/2000/svg" viewBox="0 0 656 696.52"><title>manoLogo</title><path d="M680,371a327.12,327.12,0,0,1-24.24,124c-.14.33-.27.67-.41,1C606.19,615.14,488.89,699,352,699,214.73,699,97.15,614.67,48.24,495A327.12,327.12,0,0,1,24,371C24,189.85,170.85,43,352,43q7.54,0,15,.34C490.88,48.91,596.87,123.21,647.76,229A326.81,326.81,0,0,1,680,371Z" transform="translate(-24 -2.48)" style="fill:#814071"/><path d="M642.18,524C589.37,624,486.44,693.34,366.86,698.67a326,326,0,0,1-130.64-36.41l0,.25L233.76,661c-2.38-1.27-4.75-2.56-7.1-3.89q-9.58-5.42-18.77-11.45a329.78,329.78,0,0,1-97.37-99c29-31.91,66.91-50.11,101.87-62.51,4.51-1.6,9-3.1,13.36-4.53,2.15-.7,4.28-1.37,6.4-2,19-5.94,36.31-10.5,49.82-15.13q4.71-1.61,8.77-3.25c1.51-.62,2.95-1.24,4.31-1.88l.17-.07.19-.09,1-.48,1.11-.56c1.32-.68,2.59-1.39,3.82-2.14l.32-.2c.46-.29.92-.58,1.37-.88l.54-.36c.46-.31.91-.63,1.35-1s1.07-.79,1.59-1.21c.14-.1.29-.22.42-.33.44-.35.87-.71,1.28-1.07l.33-.28.08-.07q.65-.56,1.26-1.14c.5-.46,1-.94,1.46-1.42a51.88,51.88,0,0,0,7.29-9.31A61.67,61.67,0,0,0,325.13,422a83.79,83.79,0,0,0,3.05-15.84c.14-1.47.25-2.93.33-4.39l0-.82c.06-1.16.1-2.32.12-3.47,0-.4,0-.79,0-1.18,0-1,0-2.05,0-3.07l0-1.35c0-.39,0-.78-.05-1.17a143.3,143.3,0,0,1-26.77-19c-1.23-1.11-2.46-2.24-3.67-3.39-2.83-2.69-5.58-5.51-8.25-8.43A183.87,183.87,0,0,1,269.64,333l-.06-.09c-.48-.79-1-1.57-1.43-2.36,0,0,0,0,0,0-2.24-3.73-4.36-7.52-6.34-11.4-.26-.53-.53-1-.79-1.57l-.68-1.37q-1-2.06-2-4.13a36.37,36.37,0,0,1-42.2-35.56,35.6,35.6,0,0,1,7.27-21.61,493.55,493.55,0,0,1-23.2-56.15c-24.34-70.3,11.9-95.95,40.38-89.28,0,0,2.08-90.52,102.5-104.17Q355.2,3.6,367,3.08V43.34a326.23,326.23,0,0,1,175.3,60.48c-.38.46-.76.91-1.15,1.35q1.88,5.37,3.41,11a91.71,91.71,0,0,0,8.82-4.12Q561.95,118.74,570,126a133.27,133.27,0,0,1-19.24,31.32c1.23,27.46-2.65,58.51-12.67,93.11a35.81,35.81,0,0,1,11.67,26.44,36.33,36.33,0,0,1-43.06,35.41c-.23.52-.45,1-.69,1.54h0l-.84,1.74-1.08,2.17a186.72,186.72,0,0,1-30.7,44.18,156.28,156.28,0,0,1-24.15,20.94l0,.29c-.1,1.16-.19,2.34-.28,3.51,0,.6-.07,1.21-.11,1.81s-.06,1.3-.08,1.95c0,.34,0,.67,0,1,0,.56,0,1.13,0,1.69,0,.4,0,.79,0,1.19,0,.58,0,1.16,0,1.74,0,.34,0,.68,0,1,0,.68,0,1.36,0,2s0,1.12.07,1.68,0,.89.07,1.33.06,1,.1,1.5c0,.23,0,.47,0,.7s0,.42.05.63c.07.79.14,1.58.23,2.37,0,.21.06.43.08.64.09.75.18,1.5.29,2.25.05.36.11.72.17,1.09.09.57.18,1.14.28,1.71s.16.88.24,1.31c.14.74.28,1.49.45,2.22h0a65.63,65.63,0,0,0,7.31,19.14,53.33,53.33,0,0,0,5.71,8h0l.09.1c.7.8,1.42,1.59,2.18,2.35s1.37,1.34,2.08,2l.46.42c.75.65,1.52,1.3,2.32,1.92l0,0q.56.45,1.14.87l.23.17a56.25,56.25,0,0,0,7.49,4.6l.25.13.29.15.79.39h0l.24.11a130.68,130.68,0,0,0,14.27,5.65c17.94,6.13,42.54,12.15,68.81,21.44q3,1.05,6,2.17,7.26,2.67,14.62,5.74C604.59,500,624.23,510.27,642.18,524Z" transform="translate(-24 -2.48)" style="opacity:0.2"/><path d="M630,545.17a330,330,0,0,1-95.37,98.33q-5.83,3.91-11.84,7.58a328.37,328.37,0,0,1-331.95,5.66q-9.59-5.41-18.77-11.45a329.78,329.78,0,0,1-97.37-99c29-31.91,66.91-50.11,101.87-62.51,4.51-1.6,9-3.1,13.36-4.53,2.15-.7,4.28-1.37,6.4-2,19-5.94,36.31-10.5,49.82-15.13q4.71-1.6,8.77-3.25c1.51-.62,3-1.24,4.31-1.88l.36-.16c.72-.35,1.41-.69,2.08-1,1.32-.68,2.59-1.39,3.82-2.14l1-.65.44-.29c.3-.19.6-.39.89-.6s.77-.53,1.14-.8c.57-.41,1.12-.83,1.66-1.26.16-.12.33-.25.48-.38l0,0c.38-.3.76-.62,1.13-.94l.39-.34c.45-.39.9-.79,1.33-1.2s1-.94,1.46-1.42a51.88,51.88,0,0,0,7.29-9.31c5.71-9.24,8.52-19.9,9.58-30.59a114,114,0,0,0,.42-15.41l-.06-1.43h0a1.27,1.27,0,0,0,0-.2c0-1-.11-2-.18-3s-.15-2.08-.25-3.1c-.38-4-.89-7.79-1.48-11.34a167.41,167.41,0,0,0-5.43-22.9l-.45-1.35H420.79l-.21.61-.11.34c-.16.51-.39,1.22-.66,2.12h0c-.35,1.13-.77,2.57-1.23,4.25-.09.35-.18.71-.28,1.08-.53,2-1.1,4.32-1.67,6.89-.12.53-.23,1.07-.35,1.63-.19.91-.38,1.85-.56,2.81-.13.62-.24,1.25-.36,1.89-.06.32-.12.64-.17,1-.18,1-.35,2.06-.52,3.13l-.18,1.18c-.14.93-.27,1.88-.4,2.84-.08.65-.17,1.3-.25,2l-.15,1.37q-.12,1.15-.24,2.34h0c-.13,1.42-.24,2.86-.34,4.31,0,.38-.05.77-.06,1.15-.2,3.59-.26,7.27-.13,11,0,.44,0,.89.05,1.33,0,.71.07,1.43.12,2.15,0,.5.07,1,.11,1.5s.08,1,.13,1.49.08.87.13,1.3c0,.06,0,.13,0,.2.1.88.2,1.76.33,2.64h0c.12.88.26,1.76.41,2.64s.31,1.76.49,2.63c.08.44.17.87.27,1.31h0a65.63,65.63,0,0,0,7.31,19.14,52.59,52.59,0,0,0,8,10.43,49.38,49.38,0,0,0,4.86,4.32c.17.14.34.28.52.41s.59.45.89.66a56.25,56.25,0,0,0,7.49,4.6l.54.28.81.4.24.11a130.68,130.68,0,0,0,14.27,5.65c17.94,6.13,42.54,12.15,68.81,21.44q3,1,6,2.17,7.26,2.67,14.62,5.74C577.77,503.41,606.66,520,630,545.17Z" transform="translate(-24 -2.48)" style="fill:#f39a7f"/><path d="M630,545.17a330,330,0,0,1-95.37,98.33q-5.83,3.91-11.84,7.58a328.37,328.37,0,0,1-331.95,5.66q-9.59-5.41-18.77-11.45a329.78,329.78,0,0,1-97.37-99c29-31.91,66.91-50.11,101.87-62.51,4.51-1.6,9-3.1,13.36-4.53,2.15-.7,4.28-1.37,6.4-2,19-5.94,36.31-10.5,49.82-15.13q4.71-1.6,8.77-3.25c1.51-.62,3-1.24,4.31-1.88l.36-.16c.72-.35,1.41-.69,2.08-1,1.32-.68,2.59-1.39,3.82-2.14l1-.65.44-.29c.3-.19.6-.39.89-.6s.77-.53,1.14-.8c.57-.41,1.12-.83,1.66-1.26.16-.12.33-.25.48-.38l0,0,30.43,30.51s95.77,31.81,124.76-24.63c0,0,3.34-2,9.29-5,.29.22.59.45.89.66a56.25,56.25,0,0,0,7.49,4.6l.54.28.81.4.24.11a130.68,130.68,0,0,0,14.27,5.65c17.94,6.13,42.54,12.15,68.81,21.44q3,1,6,2.17,7.26,2.67,14.62,5.74C577.77,503.41,606.66,520,630,545.17Z" transform="translate(-24 -2.48)" style="fill:#376b89"/><path d="M488.5,290.22,216.19,302.54s-27.44-33.87-51.77-104.17,11.9-96,40.38-89.28c0,0,2.08-90.52,102.5-104.17,67.54-9.19,129.83,7.63,168.27,49.64.21.22.42.46.66.73q4.44,4.89,8.4,10.23l.06.07a143,143,0,0,1,12,19.15A160.14,160.14,0,0,1,512,130.18C519.85,173,513.75,226.42,488.5,290.22Z" transform="translate(-24 -2.48)" style="fill:#ffc03c"/><path d="M494.34,261.56s19.52-71.91-16.2-105.78-26.92,127.77-26.92,127.77Z" transform="translate(-24 -2.48)" style="fill:#ce9532"/><path d="M415,416.16a57.22,57.22,0,0,1-30.92,17.08c-41.06,8.51-73.38-11.46-91.71-27.46a134.09,134.09,0,0,0-1.55-34.44c11.6-9.79,26.42-17.78,42.17-24.25h87.81S407.87,383.86,415,416.16Z" transform="translate(-24 -2.48)" style="fill:#d98472"/><path d="M207.19,281.27l-5-3.59c-4.35-13.2-16.56-79.82,10.09-103.66C241.21,148.16,207.19,281.27,207.19,281.27Z" transform="translate(-24 -2.48)" style="fill:#ce9532"/><ellipse cx="192.7" cy="273.65" rx="36.35" ry="36.03" style="fill:#f39a7f"/><ellipse cx="192.7" cy="273.65" rx="22.7" ry="22.5" style="fill:#d98472"/><ellipse cx="453.62" cy="274.01" rx="36.35" ry="36.03" style="fill:#f39a7f"/><ellipse cx="453.62" cy="274.01" rx="22.7" ry="22.5" style="fill:#d98472"/><path d="M488.07,221.34c0,.84,0,1.67,0,2.5q-.12,8.73-1.05,17.52c-8.6,81.58-68.1,163.35-140.2,163.35s-131.45-81.56-140.17-163c-.48-4.46-.81-8.93-1-13.38-.08-2.32-.13-4.64-.13-7,0-87.62,63.25-158.66,141.28-158.66S488.07,133.72,488.07,221.34Z" transform="translate(-24 -2.48)" style="fill:#f39a7f"/><path d="M390,209.88c.47-.43,11.76-10.43,30.54-.82A5.55,5.55,0,0,0,428,206.7a5.46,5.46,0,0,0-2.38-7.39c-13.42-6.87-24.33-5.92-31.11-3.91a31.12,31.12,0,0,0-12.13,6.53s-5.11,4.41-1.65,7.92c3.86,3.93,9.31,0,9.31,0Z" transform="translate(-24 -2.48)" style="fill:#2d2d2d"/><path d="M298.32,210.67c-.56-.32-13.77-7.64-30,5.8a5.57,5.57,0,0,1-7.8-.69,5.45,5.45,0,0,1,.7-7.73c11.59-9.61,22.44-11,29.5-10.54A31.63,31.63,0,0,1,304,201.25s5.95,3.2,3.35,7.38c-2.91,4.67-9.09,2-9.09,2Z" transform="translate(-24 -2.48)" style="fill:#2d2d2d"/><path d="M320.22,266.8s12.55-37,22.52-36.22,33.95,47.56,33.95,47.56Z" transform="translate(-24 -2.48)" style="fill:#d98472"/><path d="M488.05,239.9c0,1.1-.05,2.21-.09,3.32q-.22,6.3-1,12.64c-.06.43-.1.86-.16,1.28a178.82,178.82,0,0,1-7.39,33.07c-.78,2.41-1.6,4.81-2.48,7.19l-.84,2.23c-.32.85-.66,1.71-1,2.56q-1.12,2.83-2.36,5.64t-2.54,5.61h0l-.84,1.74c-.36.73-.72,1.46-1.08,2.17a186.57,186.57,0,0,1-30.7,44.19,149.68,149.68,0,0,1-35.75,28.24,125.57,125.57,0,0,1-16,7.54,115.54,115.54,0,0,1-14.49,4.49,105.61,105.61,0,0,1-24.54,2.9,108.22,108.22,0,0,1-37.19-6.7c-1.44-.53-2.88-1.08-4.3-1.67-1.85-.76-3.69-1.56-5.5-2.41A140.13,140.13,0,0,1,266,371.3c-1.23-1.11-2.46-2.24-3.67-3.39-2.83-2.69-5.58-5.51-8.25-8.43a183.87,183.87,0,0,1-20.25-26.85l-.06-.1c-.48-.78-1-1.56-1.43-2.35v0c-2.24-3.73-4.36-7.52-6.34-11.4-.26-.53-.53-1.05-.79-1.57l-.68-1.37q-3.09-6.31-5.73-12.83c-.37-.92-.74-1.84-1.09-2.76-.56-1.43-1.09-2.87-1.61-4.31a180.48,180.48,0,0,1-9.45-39.77q-.72-6.1-1-12.19c7.46,8.78,20.75,21.37,39.71,28.37a83.1,83.1,0,0,0,12.85,3.61c.3.07.61.12.91.17,13.42,2.15,30.79-5.27,49.14-11.58a167.4,167.4,0,0,1,23.7-6.62,74.34,74.34,0,0,1,14.45-1.35,65.33,65.33,0,0,1,14,1.73c1.26.28,2.51.59,3.74.93,1.73.48,3.45,1,5.15,1.57h0c1.19.39,2.37.8,3.53,1.22h0c.86.32,1.72.63,2.58,1,3.9,1.48,7.74,3.07,11.55,4.61,11.13,4.5,22,8.52,33.68,7.86a45.92,45.92,0,0,0,5.12-.59,46.82,46.82,0,0,0,7.62-2c.56-.19,1.12-.4,1.67-.62a73.38,73.38,0,0,0,10.64-5.25C459.29,259,472.36,247.31,488.05,239.9Z" transform="translate(-24 -2.48)" style="fill:#f5d7be"/><g style="opacity:0.12"><path d="M188.58,654.6q5.83,3.92,11.84,7.58l-4.48-50.08Z" transform="translate(-24 -2.48)"/></g><g style="opacity:0.12"><path d="M534.63,643.5q-5.83,3.91-11.84,7.58L527.27,601Z" transform="translate(-24 -2.48)"/></g><path d="M392.67,102.67a.58.58,0,0,1-.05.13.19.19,0,0,0,0-.07Z" transform="translate(-24 -2.48)" style="fill:#63291d"/><path d="M300.42,239.88A20.38,20.38,0,0,0,282,228.65c-13.46,0-19.84,14.75-30.46,14.75,0,0,.71,4.91,14.17-2.11S283.42,230.05,300.42,239.88Z" transform="translate(-24 -2.48)" style="fill:#341624"/><path d="M388.21,236.29a20.38,20.38,0,0,1,18.42-11.23c13.46,0,19.84,14.74,30.47,14.74,0,0-.71,4.92-14.17-2.1S405.21,226.46,388.21,236.29Z" transform="translate(-24 -2.48)" style="fill:#341624"/><path d="M512,130.18C497.6,139,477.2,148,468.82,148.6c-15.53,1-97.84-86.21-97.84-86.21s62.12,18.47,99.91-5.13c1.65-1,3.21-1.92,4.68-2.7.21.22.42.46.66.73,1.91,2.16,4.87,5.78,8.4,10.23l.06.07a143,143,0,0,1,12,19.15A160.14,160.14,0,0,1,512,130.18Z" transform="translate(-24 -2.48)" style="fill:#ce9532"/><path d="M547.51,83.43c-.11.53-.23,1.09-.36,1.69-46.51,216.05-300.42,49.62-300.42,49.62-.08,3.5-.2,6.89-.37,10.2-4.43,86.66-39.49,111.42-39.49,111.42C167.52,50.59,338.36,37.25,412.39,69.57S520.08,41.86,520.08,41.86c12.94,58.5-38.31,81.08-38.31,81.08C533,115.76,547.51,83.43,547.51,83.43Z" transform="translate(-24 -2.48)" style="fill:#ffc03c"/><path d="M246.73,134.74c-.08,3.5-.2,6.89-.37,10.2A35.71,35.71,0,0,1,246.73,134.74Z" transform="translate(-24 -2.48)" style="fill:#e4c2a9"/><path d="M547.15,85.12c-46.51,216.05-300.42,49.62-300.42,49.62s100.43,46.19,193.1,31.82C529.61,152.64,543.1,103.56,547.15,85.12Z" transform="translate(-24 -2.48)" style="fill:#ce9532"/><path d="M445.39,456.41A138,138,0,0,1,428,476.53c-21.34,20.23-47,30.84-74.36,30.84-1.51,0-3,0-4.53-.1a112,112,0,0,1-75.23-32.91,124.23,124.23,0,0,1-14.63-17.43l.36-.16c.72-.35,1.41-.69,2.08-1a53.31,53.31,0,0,0,13.82-10.05,51.88,51.88,0,0,0,7.29-9.31,93.72,93.72,0,0,0,13.82,17,80.15,80.15,0,0,0,53.82,23.17c20.43.86,39.07-6.4,55.41-21.59a106.72,106.72,0,0,0,16.46-19.61,52.59,52.59,0,0,0,8,10.43,53.38,53.38,0,0,0,13.76,10l.54.28Z" transform="translate(-24 -2.48)" style="fill:#5fabc9"/><g style="opacity:0.55"><path d="M433.39,272.81,309.61,398c-1.44-.53-2.88-1.08-4.3-1.67-1.85-.76-3.69-1.56-5.5-2.41l75.67-121.58L262.32,367.91c-2.83-2.69-5.58-5.51-8.25-8.43l63-92.5-84.73,63.18c-2.24-3.73-4.36-7.52-6.34-11.4-.26-.53-.53-1.05-.79-1.57l23.91-38.61L218.78,303c-.37-.92-.74-1.84-1.09-2.76-.56-1.43-1.09-2.87-1.61-4.31l29.29-23.59a83.1,83.1,0,0,0,12.85,3.61c.3.07.61.12.91.17l-28.84,46.57,78-58.15a167.4,167.4,0,0,1,23.7-6.62l-66.88,98.22L375.42,263c3.9,1.48,7.74,3.07,11.55,4.61L316.54,380.72,420.65,275.44a45.92,45.92,0,0,0,5.12-.59A46.82,46.82,0,0,0,433.39,272.81Z" transform="translate(-24 -2.48)" style="fill:#6f95bc"/><path d="M488,243.22q-.22,6.3-1,12.64c-.06.43-.1.86-.16,1.28l-101,140.18a115.54,115.54,0,0,1-14.49,4.49l63.72-129.62a73.38,73.38,0,0,0,10.64-5.25l-54,109.89Z" transform="translate(-24 -2.48)" style="fill:#6f95bc"/></g><g style="opacity:0.12"><path d="M420.36,296.11S343,327.47,282,303.43C282,303.43,328.17,378.18,420.36,296.11Z" transform="translate(-24 -2.48)"/></g></svg>